<?xml version="1.0" encoding="UTF-8" standalone="no"?>
<svg
   xmlns:dc="http://purl.org/dc/elements/1.1/"
   xmlns:cc="http://creativecommons.org/ns#"
   xmlns:rdf="http://www.w3.org/1999/02/22-rdf-syntax-ns#"
   xmlns:svg="http://www.w3.org/2000/svg"
   xmlns="http://www.w3.org/2000/svg"
   xmlns:xlink="http://www.w3.org/1999/xlink"
   viewBox="0 0 100 100"
   height="100"
   width="100"
   version="1.1"
   id="svg4187">
  <metadata
     id="metadata4193">
    <rdf:RDF>
      <cc:Work
         rdf:about="">
        <dc:format>image/svg+xml</dc:format>
        <dc:type
           rdf:resource="http://purl.org/dc/dcmitype/StillImage" />
        <dc:title></dc:title>
      </cc:Work>
    </rdf:RDF>
  </metadata>
  <defs
     id="defs4191">
    <linearGradient
       id="linearGradient4215">
      <stop
         id="stop4217"
         offset="0"
         style="stop-color:#ffffff;stop-opacity:1;" />
      <stop
         id="stop4219"
         offset="1"
         style="stop-color:#ffffff;stop-opacity:0;" />
    </linearGradient>
    <radialGradient
       gradientUnits="userSpaceOnUse"
       gradientTransform="matrix(1,0,0,3.7719443,0,-1088.2918)"
       r="32.05648"
       fy="392.60956"
       fx="260.68573"
       cy="392.60956"
       cx="260.68573"
       id="radialGradient4221"
       xlink:href="#linearGradient4215" />
    <filter
       height="1.1821766"
       y="-0.091088302"
       width="1.68716"
       x="-0.34357998"
       id="filter4271"
       style="color-interpolation-filters:sRGB">
      <feGaussianBlur
         id="feGaussianBlur4273"
         stdDeviation="9.1783044" />
    </filter>
  </defs>
  <g
     transform="matrix(0.14379616,0,0,0.14379616,-16.614755,-0.80565522)"
     id="g4275">
    <path
       style="fill:#a61515;fill-opacity:1"
       d="m 525.80626,683.44763 c -18.3266,-1.6971 -30.76983,-4.58928 -46.5,-10.8081 -8.17027,-3.23004 -19.75652,-2.0985 -44.61562,4.35726 -12.87968,3.34482 -21.37891,4.43352 -34.56157,4.42716 -15.41145,-0.007 -27.10458,-1.62438 -41.72001,-5.76906 -22.14312,-6.27948 -46.10094,-19.20588 -67.8028,-36.58278 -9.42976,-7.55052 -29.02638,-26.90526 -37.3037,-36.84324 -48.03436,-57.67135 -81.21782,-135.71816 -90.17935,-212.1 -2.38972,-20.36825 -2.3776,-53.13772 0.0265,-71.7 4.4627,-34.45666 15.53888,-62.4132 33.50685,-84.57208 19.84509,-24.47383 50.73866,-42.35079 86.74968,-50.19882 28.15814,-6.13663 61.97668,-6.21528 97.58702,-0.22696 23.92499,4.02328 48.374,10.42872 65.94495,17.27702 13.19536,5.14291 16.03986,5.92281 24.91593,6.83135 5.23436,0.53577 9.08175,0.54659 15.6,0.0439 10.05063,-0.77518 12.56864,-1.5303 26.0521,-7.81266 43.53849,-20.28593 88.46634,-25.53454 131.4,-15.35057 20.67318,4.90373 42.91116,15.69431 59.72814,28.98194 29.046,22.95027 48.59756,59.61758 56.64196,106.22692 4.4659,25.87617 5.1498,60.28768 1.7825,89.7 -9.1965,80.32936 -44.28048,160.61731 -92.48124,211.63878 -32.8512,34.77354 -69.33865,55.3671 -108.77136,61.39068 -6.09502,0.93102 -29.92302,1.65204 -36,1.0893 z"
       id="path4203" />
    <path
       style="fill:#492525;fill-opacity:1"
       d="m 471.85183,203.23291 c -5.23438,-1.4135 -7.08203,-2.49577 -7.89036,-4.62184 -0.89791,-2.36169 0.14084,-4.66848 5.42085,-12.03821 13.15942,-18.36766 23.09314,-38.47677 34.15651,-69.14399 1.96431,-5.445 5.10514,-13.92792 6.97962,-18.850927 5.82408,-15.29599 6.30977,-17.975884 8.07282,-44.542713 0.70672,-10.649336 1.42147,-14.452257 3.21,-17.079252 2.29408,-3.369549 4.04709,-4.265102 8.30073,-4.240563 4.54585,0.02623 8.60505,1.4756 14.60426,5.214601 7.96447,4.963844 11.56906,10.146213 12.15769,17.479262 0.64358,8.017641 -1.86209,12.535391 -10.13189,18.267929 -9.76863,6.77151 -10.95709,8.133594 -15.92517,18.251666 -8.65704,17.631067 -16.53034,40.109687 -20.80528,59.399997 -0.51192,2.31 -1.49982,9.465 -2.19535,15.9 -1.53601,14.21112 -2.50673,18.81449 -5.13632,24.35744 -2.43599,5.13487 -5.79991,8.64787 -10.36495,10.82431 -4.69167,2.23681 -13.8513,2.60506 -20.45316,0.82229 z"
       id="path4201" />
    <path
       style="fill:#148800;fill-opacity:1"
       d="m 440.90626,138.10334 c -45.87369,-4.71489 -89.39182,-17.29562 -129.9,-37.55299 -28.04291,-14.023727 -45.88357,-30.334303 -47.19677,-43.148988 -0.89303,-8.714504 4.63074,-15.849434 16.89677,-21.825164 17.89412,-8.717613 48.46755,-13.837866 73.58697,-12.323903 25.10099,1.512852 44.41183,6.451738 64.68988,16.544907 29.5438,14.705084 51.8002,37.293459 63.89067,64.843668 3.28554,7.48665 7.04936,17.54717 6.81355,18.21229 -0.0996,0.28092 -3.42107,-1.25172 -7.38107,-3.40587 C 468.06359,111.69961 448.53757,101.83317 439.77859,97.958173 406.796,83.366595 345.80735,65.456362 317.30626,61.992339 c -8.82874,-1.073045 -17.46218,-1.72564 -17.02332,-1.28678 0.17903,0.179031 10.56252,2.879518 23.07442,6.001081 28.47982,7.105363 45.95137,12.082699 66.2489,18.873139 37.78333,12.640224 67.87858,26.655621 94.95,44.218351 4.83874,3.13917 5.85,4.05561 5.85,5.30155 0,1.06871 -0.3922,1.59791 -1.35,1.82158 -8.15022,1.90324 -34.77406,2.55686 -48.15,1.18208 z"
       id="path4197" />
    <path
       style="fill:url(#radialGradient4221);fill-opacity:1;fill-rule:evenodd;stroke:none;stroke-width:1px;stroke-linecap:butt;stroke-linejoin:miter;stroke-opacity:1;filter:url(#filter4271)"
       d="m 291.32799,271.6943 c -35.64297,28.62789 -56.64833,68.04361 -62.22539,140.00715 -5.57707,71.96354 39.48715,71.31138 63.63961,101.82337 -11.53443,-35.56424 -35.68668,-71.92734 -26.87006,-124.45079 z"
       id="path4205" />
  </g>
</svg>
