<?xml version="1.0" encoding="utf-8"?>
<!-- Generator: Adobe Illustrator 16.0.0, SVG Export Plug-In . SVG Version: 6.00 Build 0)  -->
<!DOCTYPE svg PUBLIC "-//W3C//DTD SVG 1.1//EN" "http://www.w3.org/Graphics/SVG/1.1/DTD/svg11.dtd">
<svg version="1.1" id="AUDIO" xmlns="http://www.w3.org/2000/svg" xmlns:xlink="http://www.w3.org/1999/xlink" x="0px" y="0px"
	 width="64px" height="64px" viewBox="0 0 64 64" enable-background="new 0 0 64 64" xml:space="preserve">
<path d="M32,5c14.888,0,27,12.112,27,27S46.888,59,32,59S5,46.888,5,32S17.112,5,32,5 M32,2C15.433,2,2,15.432,2,32
	c0,16.568,13.433,30,30,30s30-13.432,30-30C62,15.432,48.567,2,32,2L32,2z"/>
<path d="M41.49,19.225c-0.686,0-1.452,0.208-2.26,0.648L28.916,25.5H21c-2.75,0-5,2.25-5,5v3c0,2.75,2.25,5,5,5h7.916l10.314,5.627
	c0.808,0.44,1.574,0.648,2.26,0.648c1.774,0,3.008-1.396,3.008-3.775V23C44.498,20.62,43.265,19.225,41.49,19.225z M41.498,39.946
	c0,1.1-0.79,1.569-1.756,1.042l-7.634-4.164c-0.966-0.527-1.907-1.04-2.092-1.141c-0.185-0.102-0.508-0.184-0.718-0.184
	c-0.211,0-1.283,0-2.383,0H21c-1.1,0-2-0.9-2-2v-3c0-1.1,0.9-2,2-2h5.916c1.1,0,2.172,0,2.383,0c0.21,0,0.533-0.082,0.718-0.184
	c0.185-0.101,1.126-0.613,2.092-1.141l7.634-4.164c0.966-0.527,1.756-0.058,1.756,1.042V39.946z"/>
</svg>
