<?xml version="1.0" encoding="UTF-8" standalone="no"?>
<svg
   xmlns:dc="http://purl.org/dc/elements/1.1/"
   xmlns:cc="http://creativecommons.org/ns#"
   xmlns:rdf="http://www.w3.org/1999/02/22-rdf-syntax-ns#"
   xmlns:svg="http://www.w3.org/2000/svg"
   xmlns="http://www.w3.org/2000/svg"
   xmlns:sodipodi="http://sodipodi.sourceforge.net/DTD/sodipodi-0.dtd"
   xmlns:inkscape="http://www.inkscape.org/namespaces/inkscape"
   viewBox="0 0 250 313.75"
   height="313.75"
   width="250"
   version="1.1"
   id="svg4187"
   inkscape:version="0.91 r13725"
   sodipodi:docname="pokal.svg">
  <sodipodi:namedview
     pagecolor="#ffffff"
     bordercolor="#666666"
     borderopacity="1"
     objecttolerance="10"
     gridtolerance="10"
     guidetolerance="10"
     inkscape:pageopacity="0"
     inkscape:pageshadow="2"
     inkscape:window-width="1920"
     inkscape:window-height="1026"
     id="namedview10"
     showgrid="false"
     inkscape:zoom="10.084064"
     inkscape:cx="129.80578"
     inkscape:cy="52.72102"
     inkscape:window-x="0"
     inkscape:window-y="0"
     inkscape:window-maximized="1"
     inkscape:current-layer="layer2" />
  <metadata
     id="metadata4193">
    <rdf:RDF>
      <cc:Work
         rdf:about="">
        <dc:format>image/svg+xml</dc:format>
        <dc:type
           rdf:resource="http://purl.org/dc/dcmitype/StillImage" />
        <dc:title />
      </cc:Work>
    </rdf:RDF>
  </metadata>
  <defs
     id="defs4191" />
  <g
     inkscape:groupmode="layer"
     id="layer2"
     inkscape:label="Layer 2">
    <path
       style="fill:#ffffff;fill-rule:evenodd;stroke:#000000;stroke-width:1px;stroke-linecap:butt;stroke-linejoin:miter;stroke-opacity:1;fill-opacity:1"
       d="m 182.86279,36.877494 -24.98993,117.809646 11.89997,2.77666 13.88329,-49.97985 7.53664,-61.879815 z"
       id="path3349"
       inkscape:connector-curvature="0" />
    <path
       style="display:inline;fill:#ffffff;fill-rule:evenodd;stroke:none;stroke-width:1px;stroke-linecap:butt;stroke-linejoin:miter;stroke-opacity:1;fill-opacity:1"
       d="m 136.35376,219.83945 -4.95832,29.05574 11.5033,17.75078 6.04915,-1.98332 -7.83414,-13.18913 -2.57833,-9.02414 -0.69417,-10.51164 2.47916,-10.3133 z"
       id="path4153"
       inkscape:connector-curvature="0" />
  </g>
  <g
     inkscape:groupmode="layer"
     id="layer1"
     inkscape:label="Layer 1"
     style="display:inline">
    <g
       transform="translate(0.40742337,-1.714868)"
       id="g4288">
      <path
         id="path4265"
         d="m 93.69455,312.37596 c -13.71999,-2.889 -28.73709,-7.91775 -34.0625,-11.40645 -2.4631,-1.61358 -2.8125,-2.90497 -2.8125,-10.39508 0,-10.48638 2.32238,-14.06518 10.63817,-16.39345 4.14231,-1.15978 6.24026,-2.58572 7.56046,-5.1387 2.17104,-4.19833 4.60655,-5.69122 16.06671,-9.84835 11.03061,-4.00133 13.56377,-7.22317 14.25858,-18.13494 0.39242,-6.16288 -0.18864,-10.26806 -2.43088,-17.17404 -3.77043,-11.61275 -11.11641,-23.94625 -14.57034,-24.46282 -3.29584,-0.49295 -4.65689,-2.16837 -6.80138,-8.37232 -0.9487,-2.74458 -8.7608,-14.2714 -17.36021,-25.61515 C 49.68557,146.31375 42.83634,136.86015 33.95788,123.71996 19.06947,101.68499 5.82655,62.180708 1.13944,25.82092 -1.02042,9.0659609 -0.72917,5.0196156 2.74626,3.497893 5.76385,2.1766348 39.30149,1.2106483 46.20642,2.2461074 c 7.02646,1.0536824 8.56376,4.739559 4.35249,10.4356146 -3.05556,4.132863 -2.94474,7.429612 0.31882,9.484846 1.61799,1.018927 2.83411,0.96835 4.69751,-0.195367 1.38288,-0.863623 6.02545,-2.436598 10.31682,-3.4955 17.70832,-4.369552 98.21109,-3.374977 121.1615,1.496894 11.5382,2.44931 14.13327,1.849624 12.92619,-2.987077 -0.47024,-1.884219 -1.7001,-4.363841 -2.73304,-5.51027 -2.7678,-3.0719312 -1.66077,-7.6035673 2.07284,-8.4852167 1.71875,-0.4058623 13.13079,-0.4437292 25.36008,-0.084148 17.89666,0.5262199 22.46595,1.0196245 23.41836,2.528783 2.95239,4.6782717 0.83495,24.5125687 -5.25541,49.2280137 -9.13978,37.090344 -26.23295,70.60348 -55.71042,109.22665 -6.68277,8.75618 -14.132,19.85236 -16.55382,24.65817 -2.9638,5.88129 -5.54239,9.28378 -7.88758,10.4078 -4.50842,2.16083 -14.61941,15.03819 -14.62042,18.62059 -4.4e-4,1.52142 -1.12579,5.62037 -2.50079,9.10877 -3.03366,7.69645 -3.19473,15.71313 -0.45335,22.56448 1.83713,4.59146 3.08473,5.60057 12.1875,9.8578 5.69701,2.66441 12.02854,6.73331 14.44856,9.28522 2.36924,2.49838 5.51968,4.5425 7.00097,4.5425 8.80426,0 14.33366,6.1151 14.29926,15.81392 -0.0294,8.29301 -1.18534,10.36985 -7.57319,13.60682 -24.38321,12.3559 -61.46703,16.40451 -91.78475,10.02056 z m 53.125,-46.26078 c 0,-0.31323 -1.40895,-2.6457 -3.131,-5.18328 -5.98629,-8.82129 -8.96606,-26.7432 -5.51773,-33.18647 1.55774,-2.91067 0.52333,-4.68537 -1.5326,-2.62944 -2.06044,2.06045 -2.85843,18.10374 -1.22343,24.5969 1.69787,6.7429 7.62431,16.97177 9.83316,16.97177 0.86438,0 1.5716,-0.25627 1.5716,-0.56948 z m 26.61647,-130.2826 c 6.35697,-22.74071 14.77734,-72.357606 14.59877,-86.022915 -0.0639,-4.884859 -0.10288,-4.928036 -1.6934,-1.875 -0.89545,1.71875 -2.2599,7.0625 -3.03213,11.875 -0.77222,4.8125 -2.29224,14.375 -3.3778,21.25 -2.6062,16.505444 -5.72217,30.875035 -11.76879,54.272885 -2.73933,10.60009 -4.63505,19.83203 -4.21268,20.51541 1.68028,2.71878 5.21687,-4.74336 9.48603,-20.01538 z m 18.47673,-1.22912 c 12.48384,-17.55034 23.09327,-37.653549 29.24114,-55.407342 5.06087,-14.614765 11.88807,-46.25853 11.9048,-55.178164 0.0125,-6.397474 -1.22518,-7.301231 -9.98914,-7.29708 -6.00945,0.0029 -7.00871,1.020781 -6.96749,7.097679 0.0457,6.73836 -3.5238,11.630985 -10.33191,14.16169 -2.84171,1.056317 -5.68141,2.462567 -6.31045,3.125 -0.62902,0.662432 -1.79031,8.235672 -2.58064,16.829422 -2.63675,28.671381 -7.25992,57.465115 -11.33967,70.624995 -4.79317,15.4611 -6.05548,20.625 -5.04179,20.625 0.57381,0 5.71062,-6.56153 11.41515,-14.5812 z m -124.34687,9.8937 C 59.05463,116.79701 56.07834,101.70948 51.84604,64.809665 48.58024,36.336364 48.88675,37.496474 44.06614,35.363548 39.05852,33.147875 34.807,27.019211 33.68963,20.405551 l -0.83982,-4.970886 -9.41075,0 -9.41075,0 0.87749,8.4375 c 3.58063,34.429294 16.93789,73.359431 33.34587,97.187495 3.78729,5.5 9.28257,13.51563 12.21174,17.8125 5.12313,7.51527 8.50665,10.19494 7.10247,5.625 z"
         style="fill:#ffd50a;fill-opacity:1"
         inkscape:connector-curvature="0" />
      <path
         id="path4261"
         d="m 93.69455,312.37596 c -13.71999,-2.889 -28.73709,-7.91775 -34.0625,-11.40645 -2.4631,-1.61358 -2.8125,-2.90497 -2.8125,-10.39508 0,-10.48638 2.32238,-14.06518 10.63817,-16.39345 4.14231,-1.15978 6.24026,-2.58572 7.56046,-5.1387 2.17104,-4.19833 4.60655,-5.69122 16.06671,-9.84835 11.03061,-4.00133 13.56377,-7.22317 14.25858,-18.13494 0.39242,-6.16288 -0.18864,-10.26806 -2.43088,-17.17404 -3.77043,-11.61275 -11.11641,-23.94625 -14.57034,-24.46282 -3.29584,-0.49295 -4.65689,-2.16837 -6.80138,-8.37232 -0.9487,-2.74458 -8.7608,-14.2714 -17.36021,-25.61515 C 49.68557,146.31375 42.83634,136.86015 33.95788,123.71996 19.06947,101.68499 5.82655,62.180708 1.13944,25.82092 -1.02042,9.0659609 -0.72917,5.0196156 2.74626,3.497893 5.76385,2.1766348 39.30149,1.2106483 46.20642,2.2461074 c 7.02646,1.0536824 8.56376,4.739559 4.35249,10.4356146 -3.05556,4.132863 -2.94474,7.429612 0.31882,9.484846 1.61799,1.018927 2.83411,0.96835 4.69751,-0.195367 1.38288,-0.863623 6.02545,-2.436598 10.31682,-3.4955 17.70832,-4.369552 98.21109,-3.374977 121.1615,1.496894 11.5382,2.44931 14.13327,1.849624 12.92619,-2.987077 -0.47024,-1.884219 -1.7001,-4.363841 -2.73304,-5.51027 -2.7678,-3.0719312 -1.66077,-7.6035673 2.07284,-8.4852167 1.71875,-0.4058623 13.13079,-0.4437292 25.36008,-0.084148 17.89666,0.5262199 22.46595,1.0196245 23.41836,2.528783 2.95239,4.6782717 0.83495,24.5125687 -5.25541,49.2280137 -9.13978,37.090344 -26.23295,70.60348 -55.71042,109.22665 -6.68277,8.75618 -14.132,19.85236 -16.55382,24.65817 -2.9638,5.88129 -5.54239,9.28378 -7.88758,10.4078 -4.50842,2.16083 -14.61941,15.03819 -14.62042,18.62059 -4.4e-4,1.52142 -1.12579,5.62037 -2.50079,9.10877 -3.03366,7.69645 -3.19473,15.71313 -0.45335,22.56448 1.83713,4.59146 3.08473,5.60057 12.1875,9.8578 5.69701,2.66441 12.02854,6.73331 14.44856,9.28522 2.36924,2.49838 5.51968,4.5425 7.00097,4.5425 8.80426,0 14.33366,6.1151 14.29926,15.81392 -0.0294,8.29301 -1.18534,10.36985 -7.57319,13.60682 -24.38321,12.3559 -61.46703,16.40451 -91.78475,10.02056 z m 63.125,-6.08082 c 6.53125,-1.70269 16.23437,-5.0921 21.5625,-7.53203 9.52017,-4.3596 9.6875,-4.51552 9.6875,-9.02812 0,-3.80506 -0.37484,-4.47264 -2.1875,-3.89589 -1.20313,0.38281 -6.96875,2.35164 -12.8125,4.37516 -5.84375,2.02353 -16.53125,4.66635 -23.75,5.87294 -23.1228,3.86491 -57.41782,0.8631 -77.5,-6.78351 -9.83207,-3.74371 -11.49693,-3.53025 -11.0167,1.41257 0.47957,4.93598 5.59332,8.18062 20.3917,12.93839 17.79994,5.7228 24.85197,6.69409 45,6.19798 14.83894,-0.36539 21.227,-1.10745 30.625,-3.55749 z m 5.625,-17.1747 c 22.89005,-5.72451 28.06035,-9.152 17.5538,-11.63674 -3.8313,-0.90609 -6.04856,-0.58771 -11.42411,1.64033 -12.367,5.12583 -19.629,6.45168 -39.25469,7.1669 -21.04339,0.76688 -32.26185,-0.41092 -44.38606,-4.65998 -10.45399,-3.66372 -12.62362,-4.09037 -16.21585,-3.18877 -11.62518,2.91773 12.53884,12.37393 36.85191,14.4214 19.32746,1.62761 41.13962,0.19207 56.875,-3.74314 z m -12.74038,-7.57108 c 20.64237,-4.26978 23.85207,-7.44045 14.95558,-14.7737 -5.25031,-4.32773 -9.9555,-5.25065 -8.42996,-1.6535 1.84215,4.34368 1.22932,7.0949 -1.92264,8.63163 -8.9933,4.38464 -42.54427,5.69725 -55.15823,2.15795 -8.08971,-2.26985 -12.45237,-5.85408 -10.04983,-8.25661 4.51604,-4.51605 -1.90613,-4.67508 -7.24882,-0.17949 -5.62529,4.73336 -4.71841,7.9237 3.09428,10.88549 15.87698,6.01893 44.3077,7.41863 64.75962,3.18823 z m -6.76937,-9.26932 c 9.15897,-2.31124 10.11999,-3.53483 6.10626,-7.77464 -4.6276,-4.88826 -9.44909,-14.52555 -10.3831,-20.75397 -0.71583,-4.77359 0.99586,-14.39003 3.74644,-21.04778 0.79495,-1.92416 -0.31214,-2.04365 -12.82047,-1.38377 -8.90998,0.47003 -15.12733,0.22137 -17.80517,-0.71213 -2.26303,-0.7889 -4.40522,-1.14375 -4.7604,-0.78856 -0.35519,0.35519 0.29852,3.64155 1.45269,7.303 4.44896,14.11374 1.65474,26.46516 -8.08975,35.75944 -3.33396,3.17992 -6.06175,6.13661 -6.06175,6.57041 0,1.14042 8.10686,3.64379 15.50264,4.78715 7.99446,1.23592 24.26638,0.27317 33.11261,-1.95915 z m -1.71946,-57.3985 c 3.2132,-1.34256 5.95482,-4.38523 10.73349,-11.91206 5.19941,-8.18955 6.86994,-9.96549 8.79832,-9.35345 1.9241,0.61068 2.88805,-0.40043 5.02937,-5.27544 3.10464,-7.06811 7.78938,-14.17141 16.75564,-25.40593 16.44521,-20.60546 36.15393,-53.13808 44.41764,-73.318972 9.36141,-22.861605 16.47084,-50.353714 18.11279,-70.04206 0.78461,-9.408243 0.66197,-10.2180428 -1.74233,-11.5047878 -3.10802,-1.663363 -41.50071,-1.9196719 -41.50071,-0.277058 0,0.608914 0.84029,2.7182888 1.8673,4.6874988 3.10457,5.952764 2.25685,11.998204 -2.00208,14.277515 -1.641,0.878237 -4.49277,0.69594 -9.54043,-0.609862 -9.9961,-2.585931 -29.82382,-4.217693 -62.82479,-5.170291 -33.28595,-0.960825 -58.95086,0.733215 -70.22646,4.63537 -7.50899,2.598641 -7.55682,2.599323 -10.8454,0.154726 C 44.18531,22.74692 43.16452,15.50864 46.15696,10.9416 48.01341,8.1083095 47.99683,7.8240825 45.92562,6.974653 44.69853,6.47141 35.34286,6.0726218 25.13523,6.0884569 2.70561,6.1232519 3.00035,5.9320192 4.56189,19.436918 c 3.1358,27.119748 12.23536,60.645118 22.14538,81.589892 6.86185,14.50248 20.54279,35.09173 42.99713,64.70894 8.72583,11.50934 15.86515,21.94371 15.86515,23.1875 0,3.41611 2.55789,5.51949 4.62547,3.80355 2.13477,-1.77171 1.94811,-1.99245 8.21775,9.71775 6.84906,12.79241 9.51055,14.23551 26.25943,14.23818 7.82874,0.001 13.78015,-0.64674 16.54314,-1.80119 z m 26.85421,-45.05956 c 0,-1.0928 1.0473,-4.07388 2.32734,-6.62462 9.27868,-18.4897 20.24747,-71.722752 23.39978,-113.56234 0.79248,-10.518264 0.67382,-11.481516 -1.49568,-12.141489 -6.75715,-2.05557 -23.21728,-4.713758 -40.48144,-6.537458 -32.47164,-3.430142 -78.93285,-0.906824 -93.22019,5.062807 -4.0331,1.685135 -4.27922,2.134166 -4.26955,7.789501 0.0117,6.838759 1.86459,24.901494 3.69306,36.001284 0.67951,4.125 2.11825,13.125 3.1972,20 3.21643,20.495035 9.83309,45.085465 16.38658,60.899835 3.45754,8.34346 3.47781,8.47516 1.30416,8.47516 -1.76034,0 -12.16754,-13.97411 -30.25541,-40.625 C 31.19343,102.83098 20.21979,77.17034 14.18662,47.95826 10.80873,31.60277 9.66291,13.642541 11.90881,12.254498 c 0.93077,-0.575243 6.24875,-1.285048 11.81775,-1.577346 11.2206,-0.588931 14.34299,0.883109 14.34299,6.761947 0,4.609762 3.11172,11.156739 6.39609,13.4572 3.27001,2.290402 9.34644,2.644679 14.13489,0.824114 5.95614,-2.264523 26.54295,-4.979689 43.97937,-5.80038 23.7225,-1.116563 60.05314,1.313142 78.77041,5.267972 8.16433,1.725066 15.40674,3.193638 16.09424,3.26349 9.12297,0.926934 14.375,-3.625431 14.375,-12.460011 0,-3.33125 0.675,-6.731819 1.5,-7.556819 1.56364,-1.563635 19.13887,-2.135717 22.77276,-0.741264 5.65762,2.171028 -1.86042,44.374429 -13.13284,73.722829 -6.63442,17.27312 -18.4895,36.74761 -44.76607,73.53785 -6.57543,9.20636 -10.12385,12.31457 -10.12385,8.8679 z m 23.8432,-35.21852 c 12.48384,-17.55034 23.09327,-37.653549 29.24114,-55.407342 5.06087,-14.614765 11.88807,-46.25853 11.9048,-55.178164 0.0125,-6.397474 -1.22518,-7.301231 -9.98914,-7.29708 -6.00945,0.0029 -7.00871,1.020781 -6.96749,7.097679 0.0457,6.73836 -3.5238,11.630985 -10.33191,14.16169 -2.84171,1.056317 -5.68141,2.462567 -6.31045,3.125 -0.62903,0.662432 -1.79031,8.235672 -2.58064,16.829422 -2.63675,28.671381 -7.25992,57.465115 -11.33967,70.624995 -4.79317,15.4611 -6.05548,20.625 -5.04179,20.625 0.57381,0 5.71062,-6.56153 11.41515,-14.5812 z m -124.34687,9.8937 C 59.05463,116.79701 56.07834,101.70948 51.84604,64.809665 48.58024,36.336364 48.88675,37.496474 44.06614,35.363548 39.05852,33.147875 34.807,27.019211 33.68963,20.405551 l -0.83982,-4.970886 -9.41075,0 -9.41075,0 0.87749,8.4375 c 3.58063,34.429294 16.93789,73.359431 33.34587,97.187495 3.78729,5.5 9.28257,13.51563 12.21174,17.8125 5.12313,7.51527 8.50665,10.19494 7.10247,5.625 z"
         style="fill:#605837"
         inkscape:connector-curvature="0" />
      <text
         xml:space="preserve"
         style="font-style:normal;font-weight:normal;font-size:40px;line-height:125%;font-family:sans-serif;letter-spacing:0px;word-spacing:0px;fill:#000000;fill-opacity:1;stroke:none;stroke-width:1px;stroke-linecap:butt;stroke-linejoin:miter;stroke-opacity:1"
         x="111.92383"
         y="128.04594"
         id="text4284"
         sodipodi:linespacing="125%"><tspan
           id="tspan4286"
           x="111.92383"
           y="128.04594">1</tspan></text>
    </g>
  </g>
</svg>
