<?xml version="1.0" encoding="UTF-8" standalone="no"?>
<svg
   xmlns:dc="http://purl.org/dc/elements/1.1/"
   xmlns:cc="http://creativecommons.org/ns#"
   xmlns:rdf="http://www.w3.org/1999/02/22-rdf-syntax-ns#"
   xmlns:svg="http://www.w3.org/2000/svg"
   xmlns="http://www.w3.org/2000/svg"
   id="svg3406"
   version="1.1"
   width="625"
   height="580"
   viewBox="0 0 625 580">
  <metadata
     id="metadata3412">
    <rdf:RDF>
      <cc:Work
         rdf:about="">
        <dc:format>image/svg+xml</dc:format>
        <dc:type
           rdf:resource="http://purl.org/dc/dcmitype/StillImage" />
        <dc:title></dc:title>
      </cc:Work>
    </rdf:RDF>
  </metadata>
  <defs
     id="defs3410" />
  <path
     id="path3422"
     d="m 84.01323,520.24896 c -7.79186,-2.79094 -14.53213,-7.96557 -18.47596,-14.18435 -4.96912,-7.83547 -6.49859,-14.13561 -5.91953,-24.38346 0.4398,-7.78343 1.35529,-10.23245 10.29031,-27.5274 5.39415,-10.44115 11.3791,-21.2339 13.29988,-23.9839 1.92078,-2.75 48.52971,-84.3125 103.5754,-181.25 55.0457,-96.9375 101.85284,-178.145005 104.01588,-180.461117 2.16303,-2.316112 7.01114,-5.620434 10.77359,-7.342939 12.86512,-5.889841 29.58974,-2.473451 39.18795,8.005034 4.18833,4.572457 219.74776,391.251892 222.80966,399.685202 2.94075,8.09962 2.43023,25.40548 -0.93864,31.81927 -3.2604,6.20729 -11.79975,15.00025 -17.5657,18.08741 l -5.05619,2.70714 -225.625,0.26465 c -187.5859,0.22004 -226.42526,-0.022 -230.37165,-1.43554 z"
     style="fill:#fbd028" />
  <path
     id="path3420"
     d="m 78.871786,524.2791 c -8.567333,-2.96838 -15.176701,-8.28382 -20.055417,-16.12914 -3.59577,-5.78229 -3.831031,-6.95092 -3.831031,-19.03086 l 0,-12.87026 9.408062,-18.51666 C 69.567831,447.548 75.09867,437.48067 76.68415,435.36032 78.269641,433.23998 126.25929,349.34031 183.32779,248.9166 240.3963,148.49291 288.27663,65.022633 289.72851,63.427078 c 1.45189,-1.595555 5.83218,-4.468831 9.73398,-6.385059 13.12921,-6.447953 29.50381,-3.763745 39.37665,6.45482 2.18308,2.259543 54.55067,94.857971 116.37243,205.774301 87.95378,157.80061 112.72236,203.20353 113.87059,208.73447 3.89239,18.74963 -4.63081,36.7639 -21.26874,44.95261 l -6.28662,3.09408 -227.9466,0.2848 C 95.37965,526.60973 85.344522,526.52173 78.871786,524.2791 Z M 540.98653,497.41777 c 3.16052,-3.16053 3.7328,-4.74234 3.7328,-10.3177 0,-6.35066 -3.95429,-13.67956 -111.15563,-206.01638 C 372.42811,171.39638 321.46128,80.933906 320.3041,80.055966 c -1.1572,-0.87795 -3.97622,-1.596265 -6.26447,-1.596265 -4.62895,0 -7.25661,2.837255 -14.19213,15.324141 C 297.70193,97.646803 248.45873,184.3419 190.41817,286.43963 132.37762,388.53736 83.476935,474.86022 81.749976,478.26819 c -4.290119,8.46612 -4.203348,15.63373 0.239086,19.75083 l 3.379004,3.13155 225.942834,0 225.94283,0 3.7328,-3.7328 z M 302.72561,459.7916 c -25.99989,-12.31236 -26.77842,-49.24423 -1.31456,-62.36054 2.78875,-1.43648 8.6204,-2.89675 12.95921,-3.24502 14.31962,-1.14943 26.13857,5.203 33.11574,17.79904 3.23053,5.83216 3.76566,8.1593 3.76566,16.37583 0,8.22907 -0.53333,10.54051 -3.7879,16.41669 -2.08336,3.76151 -5.78633,8.48637 -8.22885,10.49971 -9.64413,7.94949 -25.19484,9.8723 -36.5093,4.51429 z m 4.47866,-85.82243 c -5.49276,-2.38197 -9.84573,-6.34692 -12.43542,-11.32695 -1.95997,-3.769 -2.5884,-10.08044 -11.24465,-112.93096 -1.79684,-21.34925 -2.92698,-40.36484 -2.51143,-42.25683 1.91588,-8.72289 19.37771,-19.28761 33.40863,-20.21282 13.7658,-0.90773 29.11879,6.32505 34.77007,16.38014 2.89227,5.1461 2.91835,5.53531 1.52223,22.72337 -1.57008,19.32982 -5.71941,76.74691 -7.76986,107.51691 -0.72546,10.88653 -1.89781,21.92275 -2.60524,24.52492 -3.68616,13.5594 -20.05159,21.25563 -33.13433,15.58222 z"
     style="fill:#0b0a05" />
</svg>
